<?xml version="1.0" standalone="no"?><!DOCTYPE svg PUBLIC "-//W3C//DTD SVG 1.1//EN" "http://www.w3.org/Graphics/SVG/1.1/DTD/svg11.dtd"><svg t="1709362143205" class="icon" viewBox="0 0 1024 1024" version="1.1" xmlns="http://www.w3.org/2000/svg" p-id="7559" xmlns:xlink="http://www.w3.org/1999/xlink" width="200" height="200"><path d="M789.308 21.32H149.334v981.328h85.342V106.664h554.632v895.984h85.372V21.32z" fill="#1296db" p-id="7560" data-spm-anchor-id="a313x.search_index.0.i12.20683a81CRtyos" class="selected"></path><path d="M234.676 106.664h554.632v917.33H234.676z" fill="#FFD2A6" p-id="7561"></path><path d="M128.006 0.008v1023.984h127.998V128.006h511.992v895.986h127.996V0.008H128.006z m42.672 981.296V72.82l42.656 42.688v865.798H170.678zM243.504 85.32l-42.656-42.656h622.302L780.496 85.32H243.504z m567.18 895.984V115.506l42.624-42.688v908.486h-42.624z" fill="#965353" p-id="7562"></path><path d="M320.004 234.66h149.326v127.998h-149.326zM320.004 490.656h149.326v127.998h-149.326zM554.688 234.66h149.308v127.998h-149.308zM320.004 746.652h149.326v127.996h-149.326zM554.688 746.652h149.308v127.996h-149.308z" fill="#F4BE8E" p-id="7563"></path><path d="M639.996 576h-85.308c-11.796 0-21.36-9.562-21.36-21.344s9.562-21.344 21.36-21.344h85.308c11.782 0 21.312 9.562 21.312 21.344S651.778 576 639.996 576z" fill="#F6BB42" p-id="7564"></path><path d="M256.004 362.658c-11.782 0-21.328-9.562-21.328-21.342v-85.312c0-11.812 9.546-21.344 21.328-21.344s21.328 9.532 21.328 21.344v85.312c0.002 11.78-9.546 21.342-21.328 21.342zM256.004 874.648c-11.782 0-21.328-9.562-21.328-21.344v-85.308c0-11.812 9.546-21.344 21.328-21.344s21.328 9.532 21.328 21.344v85.308c0.002 11.782-9.546 21.344-21.328 21.344z" fill="#434A54" p-id="7565"></path><path d="M725.308 554.656c0 23.562-19.062 42.656-42.624 42.656s-42.688-19.094-42.688-42.656S659.122 512 682.684 512s42.624 19.094 42.624 42.656z" fill="#FFCE54" p-id="7566"></path><path d="M682.684 618.652c-35.312 0-63.996-28.714-63.996-63.996s28.684-64 63.996-64c35.25 0 64 28.72 64 64s-28.75 63.996-64 63.996z m0-85.34c-11.782 0-21.376 9.562-21.376 21.344 0 11.75 9.594 21.344 21.376 21.344 11.75 0 21.312-9.594 21.312-21.344 0-11.78-9.562-21.344-21.312-21.344z" fill="#F6BB42" p-id="7567"></path></svg>